<?xml version="1.0" encoding="utf-8"?>
<!-- Generator: Adobe Illustrator 18.0.0, SVG Export Plug-In . SVG Version: 6.00 Build 0)  -->
<!DOCTYPE svg PUBLIC "-//W3C//DTD SVG 1.1//EN" "http://www.w3.org/Graphics/SVG/1.1/DTD/svg11.dtd">
<svg version="1.1" id="Layer_1" xmlns="http://www.w3.org/2000/svg" xmlns:xlink="http://www.w3.org/1999/xlink" x="0px" y="0px"
	 viewBox="0 0 800 800" enable-background="new 0 0 800 800" xml:space="preserve">
<circle fill="#EDFAFF" cx="400" cy="400" r="400"/>
<g>
	<linearGradient id="SVGID_1_" gradientUnits="userSpaceOnUse" x1="401.6" y1="180" x2="401.6" y2="620">
		<stop  offset="0" style="stop-color:#00ACE2"/>
		<stop  offset="1" style="stop-color:#3D94D1"/>
	</linearGradient>
	<path fill="url(#SVGID_1_)" d="M588.8,408.8c-0.8-20.8-18.4-38.4-39.2-38.4h-59.2l0,0L472.8,352v-58.4c0-21.6-17.6-39.2-38.4-39.2
		c-0.8-20.8-18.4-38.4-39.2-38.4H336l0,0l-21.6-23.2c-7.2-8-17.6-12.8-28.8-12.8h-71.2c-21.6,0-39.2,17.6-39.2,39.2v207.2
		c0,21.6,17.6,39.2,39.2,39.2h115.2v115.2c0,21.6,17.6,39.2,39.2,39.2h220c21.6,0,39.2-17.6,39.2-39.2V448
		C627.2,426.4,609.6,408.8,588.8,408.8z"/>
	<linearGradient id="SVGID_2_" gradientUnits="userSpaceOnUse" x1="189.6" y1="322.8" x2="418.4" y2="322.8">
		<stop  offset="0" style="stop-color:#FFFFFF"/>
		<stop  offset="1" style="stop-color:#3D94D1"/>
	</linearGradient>
	<path fill="url(#SVGID_2_)" d="M213.6,450.4c-13.6,0-24-10.4-24-24V219.2c0-13.6,10.4-24,24-24h71.2c6.4,0,12.8,3.2,17.6,8
		l21.6,23.2c3.2,3.2,7.2,4.8,11.2,4.8h59.2c12.8,0,23.2,10.4,24,22.4H280.8c-21.6,0-39.2,17.6-39.2,39.2v132.8c0,13.6-10.4,24-24,24
		h-4V450.4z"/>
	<linearGradient id="SVGID_3_" gradientUnits="userSpaceOnUse" x1="248" y1="360" x2="456.8" y2="360">
		<stop  offset="0" style="stop-color:#FFFFFF"/>
		<stop  offset="1" style="stop-color:#00AFF0"/>
	</linearGradient>
	<path fill="url(#SVGID_3_)" d="M328.8,373.6v76.8H248c5.6-7.2,8-15.2,8-24V293.6c0-13.6,10.4-24,24-24h152.8c13.6,0,24,10.4,24,24
		v45.6c-5.6-3.2-12-4.8-18.4-4.8H368C346.4,334.4,328.8,352,328.8,373.6z"/>
	<linearGradient id="SVGID_4_" gradientUnits="userSpaceOnUse" x1="344" y1="477.2" x2="572.8" y2="477.2">
		<stop  offset="0" style="stop-color:#FFFFFF"/>
		<stop  offset="1" style="stop-color:#3D94D1"/>
	</linearGradient>
	<path fill="url(#SVGID_4_)" d="M368,604.8c-13.6,0-24-10.4-24-24V373.6c0-13.6,10.4-24,24-24h71.2c6.4,0,12.8,3.2,17.6,8l21.6,23.2
		c3.2,3.2,7.2,4.8,11.2,4.8h59.2c12.8,0,23.2,9.6,24,22.4H435.2c-21.6,0-39.2,17.6-39.2,39.2V580c0,13.6-10.4,24-24,24h-4V604.8z"/>
	<linearGradient id="SVGID_5_" gradientUnits="userSpaceOnUse" x1="402.4" y1="514.4" x2="612" y2="514.4">
		<stop  offset="0" style="stop-color:#FFFFFF"/>
		<stop  offset="1" style="stop-color:#00AFF0"/>
	</linearGradient>
	<path fill="url(#SVGID_5_)" d="M612,580.8c0,13.6-10.4,24-24,24H402.4l0,0c0,0,0,0,0-0.8l0.8-0.8c0,0,0,0,0-0.8l0.8-0.8
		c0,0,0,0,0-0.8c0.8-0.8,0.8-2.4,1.6-3.2v-0.8c0,0,0-0.8,0.8-0.8c0,0,0,0,0-0.8c0,0,0-0.8,0.8-0.8c0,0,0,0,0-0.8c0,0,0-0.8,0.8-0.8
		c0,0,0,0,0-0.8s0.8-2.4,0.8-3.2c0,0,0,0,0-0.8s0-0.8,0-1.6v-0.8v-0.8V584c0-0.8,0-0.8,0-1.6c0,0,0,0,0-0.8s0-1.6,0-1.6V448
		c0-13.6,10.4-24,24-24h152.8c13.6,0,24,10.4,24,24v132.8H612z"/>
	<linearGradient id="SVGID_6_" gradientUnits="userSpaceOnUse" x1="239.6" y1="488" x2="239.6" y2="596.0001">
		<stop  offset="0" style="stop-color:#00ACE2"/>
		<stop  offset="1" style="stop-color:#3D94D1"/>
	</linearGradient>
	<path fill="url(#SVGID_6_)" d="M203.2,532c-9.6-9.6-15.2-22.4-15.2-36c0-2.4-0.8-4-2.4-5.6c-1.6-1.6-3.2-2.4-5.6-2.4
		c-4,0-8,3.2-8,8c0,17.6,7.2,34.4,19.2,46.4c12,12.8,29.6,19.2,46.4,19.2h44l-20,20.8c-3.2,3.2-3.2,8,0,11.2s8,3.2,11.2,0l32-32.8
		c3.2-3.2,3.2-8,0-10.4l-32-33.6c-3.2-3.2-8-3.2-11.2,0s-3.2,8,0,11.2l19.2,20h-43.2C225.6,546.4,212,541.6,203.2,532z"/>
</g>
</svg>
